<?xml version="1.0" encoding="utf-8"?>
<!-- Generator: Adobe Illustrator 23.1.1, SVG Export Plug-In . SVG Version: 6.00 Build 0)  -->
<svg version="1.1" id="Layer_1" xmlns="http://www.w3.org/2000/svg" xmlns:xlink="http://www.w3.org/1999/xlink" x="0px" y="0px"
	 viewBox="0 0 48 48" style="enable-background:new 0 0 48 48;" xml:space="preserve">
<style type="text/css">
	.st0{fill:#F72626;}
</style>
<title>insta</title>
<path class="st0" d="M24,27.5c1.9,0,3.5-1.6,3.5-3.5c0-1.9-1.6-3.5-3.5-3.5c-1.9,0-3.5,1.6-3.5,3.5C20.5,25.9,22.1,27.5,24,27.5z
	 M31.6,17.2c1.1,0,1.9-0.8,1.9-1.9c0-1.1-0.8-1.9-1.9-1.9s-1.9,0.8-1.9,1.9c0,0,0,0,0,0C29.7,16.3,30.5,17.2,31.6,17.2z M31,24
	c0,3.9-3.1,7-7,7s-7-3.1-7-7c0-0.8,0.1-1.6,0.4-2.3H14v9.5c0,1.7,1.3,3,3,3h13.5c1.7,0,3-1.3,3-3V18.7h-5C30.1,20,31,22,31,24z
	 M24,0C10.7,0,0,10.7,0,24s10.7,24,24,24s24-10.7,24-24S37.3,0,24,0z M36.8,33.7c0,2.2-1.8,4-4,4H14.7c-2.2,0-4-1.8-4-4V15.6
	c0-2.2,1.8-4,4-4h18.1c2.2,0,4,1.8,4,4L36.8,33.7L36.8,33.7z"/>
</svg>
