<?xml version="1.0" encoding="utf-8"?>
<!-- Generator: Adobe Illustrator 23.1.1, SVG Export Plug-In . SVG Version: 6.00 Build 0)  -->
<svg version="1.1" id="Layer_1" xmlns="http://www.w3.org/2000/svg" xmlns:xlink="http://www.w3.org/1999/xlink" x="0px" y="0px"
	 viewBox="0 0 100 97" style="enable-background:new 0 0 100 97;" xml:space="preserve">
<style type="text/css">
	.st0{fill:#F72626;}
</style>
<title>business card-54</title>
<path class="st0" d="M50,0.5C23.5,0.5,2,22,2,48.5s21.5,48,48,48s48-21.5,48-48S76.5,0.5,50,0.5z M72.8,62.2c-1.3,2.2-3,4.1-5,5.7
	c-1.6,1.4-3.5,2.4-5.6,3c-2.5,0.5-5,0.2-7.4-0.7c-4.1-1.4-7.9-3.7-11-6.8c-2.5-2.3-5.6-5.7-5.6-5.7c-2.8-2.9-5.3-6.3-7.2-9.9
	c-1.5-2.7-2.6-5.6-3.4-8.5c-0.7-2.5-0.9-5-0.7-7.6c0.1-1.1,0.4-2.1,0.7-3.1c1.2-4.1,4.8-7.3,7.3-9.2c1.3-0.9,3-0.7,4,0.6l0,0
	l6.2,8.4c0.6,0.8,0.7,1.8,0.3,2.7c-0.8,2.3-2.1,4.3-3.9,5.9c-0.4,0.4-0.9,0.7-1.4,1.1l0,0L40,38.2c-0.5,0.4-2.5,2.3,0,5.7
	c3.3,4.5,6.9,8.7,10.7,12.7l0,0l0,0c0.8,0.8,3.1,2.4,5.1-0.3l0,0c0.8-1.3,3.8-6.6,5.8-5.5c0.5,0.3,7,5.3,10.2,7.9
	C73.1,59.5,73.4,61,72.8,62.2z"/>
</svg>
