<?xml version="1.0" encoding="utf-8"?>
<!-- Generator: Adobe Illustrator 23.1.1, SVG Export Plug-In . SVG Version: 6.00 Build 0)  -->
<svg version="1.1" id="Layer_1" xmlns="http://www.w3.org/2000/svg" xmlns:xlink="http://www.w3.org/1999/xlink" x="0px" y="0px"
	 viewBox="0 0 100 97" style="enable-background:new 0 0 100 97;" xml:space="preserve">
<style type="text/css">
	.st0{fill:#F72626;}
</style>
<title>business card-54</title>
<g>
	<path class="st0" d="M50,0.5C23.5,0.5,2,22,2,48.5s21.5,48,48,48s48-21.5,48-48S76.5,0.5,50,0.5z M76,77.9
		c-3.1,2.3-6.8,3.6-10.7,3.6c-3.8,0-7.5-1.2-10.5-3.5c-16,2.5-31-8.5-33.5-24.5c-0.5-3-0.5-6,0-9C15.1,37.2,16,26.3,23.2,20
		c6.5-5.6,16.1-5.6,22.6,0c16-2.5,31,8.5,33.5,24.5c0.5,3,0.5,6.1,0,9.1C85.1,61.2,83.6,72.1,76,77.9z"/>
	<path class="st0" d="M74.5,54.8l0.2-1.1c2.6-13.5-6.3-26.6-19.8-29.2c-3-0.6-6.2-0.6-9.2,0l-1.1,0.2L43.7,24
		c-5.1-5-13.4-4.9-18.4,0.2c-5,5.1-5,13.1,0,18.2l0.8,0.8l-0.2,1.1c-2.6,13.5,6.3,26.6,19.8,29.2c3.1,0.6,6.2,0.6,9.3,0l0.9-0.2
		l0.8,0.7c5.4,4.7,13.6,4.1,18.3-1.3c4.3-4.9,4.3-12.2,0-17.1L74.5,54.8z M61.5,64.4c-2.9,2.2-6.6,3.4-10.3,3.2
		c-2.9,0-5.7-0.5-8.4-1.5c-2.7-1-5.3-2.5-7.4-4.4l-0.8-0.7l6-7.2l0.8,0.7c1.5,1.2,3.1,2.2,4.9,3c1.6,0.7,3.3,1,5.1,1
		c1.1,0.1,2.2-0.2,3.2-0.7c0.6-0.3,0.9-0.9,0.9-1.6c0-0.4-0.1-0.9-0.3-1.2c-0.5-0.5-1-0.8-1.7-1c-1.4-0.5-2.9-1-4.4-1.4
		c-2.3-0.5-4.6-1.3-6.7-2.2c-1.8-0.8-3.3-2-4.4-3.6c-1.1-1.8-1.7-4-1.6-6.1c-0.1-2.2,0.6-4.5,1.8-6.3c1.2-1.8,2.9-3.2,4.9-4.2
		c2.2-1,4.5-1.5,6.9-1.5c5.1-0.1,10,1.5,14,4.6l0.8,0.6l-5.3,7.7L58.5,41c-2.5-2-5.6-3.1-8.8-3.3c-1-0.1-1.9,0.2-2.8,0.7
		c-0.5,0.3-0.8,0.8-0.7,1.4c0,0.5,0.1,0.9,0.4,1.3c0.5,0.5,1.1,0.8,1.8,1.1c1.5,0.6,3.1,1,4.7,1.4c3.3,0.7,6.4,2.1,9,4.1
		c2.2,1.9,3.4,4.8,3.2,7.7C65.6,58.7,64.2,62.1,61.5,64.4z"/>
</g>
</svg>
